<mxfile host="Electron" modified="2023-04-24T13:09:39.212Z" agent="Mozilla/5.0 (Windows NT 10.0; Win64; x64) AppleWebKit/537.36 (KHTML, like Gecko) draw.io/21.2.1 Chrome/112.0.5615.87 Electron/24.1.2 Safari/537.36" etag="sOTJ6BtA100IU3LbrCF_" version="21.2.1" type="device">
  <diagram name="Page-1" id="q7FeTobCjuYBKhxuyjQN">
    <mxGraphModel dx="2330" dy="1977" grid="1" gridSize="10" guides="1" tooltips="1" connect="1" arrows="1" fold="1" page="1" pageScale="1" pageWidth="850" pageHeight="1100" math="0" shadow="1">
      <root>
        <mxCell id="0" />
        <mxCell id="1" parent="0" />
        <mxCell id="rjwv_-UmsnpMQfWyNfDe-22" style="edgeStyle=orthogonalEdgeStyle;rounded=0;orthogonalLoop=1;jettySize=auto;html=1;" parent="1" source="rjwv_-UmsnpMQfWyNfDe-11" target="rjwv_-UmsnpMQfWyNfDe-20" edge="1">
          <mxGeometry relative="1" as="geometry" />
        </mxCell>
        <mxCell id="rjwv_-UmsnpMQfWyNfDe-21" style="edgeStyle=orthogonalEdgeStyle;rounded=0;orthogonalLoop=1;jettySize=auto;html=1;entryX=1;entryY=0.5;entryDx=0;entryDy=0;shape=link;" parent="1" source="rjwv_-UmsnpMQfWyNfDe-12" target="rjwv_-UmsnpMQfWyNfDe-20" edge="1">
          <mxGeometry relative="1" as="geometry">
            <Array as="points">
              <mxPoint x="540" y="180" />
              <mxPoint x="540" y="160" />
            </Array>
          </mxGeometry>
        </mxCell>
        <mxCell id="E4YLymmsPlQUMgWz-ke0-27" style="edgeStyle=orthogonalEdgeStyle;rounded=0;orthogonalLoop=1;jettySize=auto;html=1;entryX=0.5;entryY=0;entryDx=0;entryDy=0;" parent="1" source="rjwv_-UmsnpMQfWyNfDe-15" target="E4YLymmsPlQUMgWz-ke0-26" edge="1">
          <mxGeometry relative="1" as="geometry" />
        </mxCell>
        <mxCell id="rjwv_-UmsnpMQfWyNfDe-15" value="&lt;font style=&quot;font-size: 24px;&quot;&gt;Customer&lt;/font&gt;" style="rounded=0;whiteSpace=wrap;html=1;" parent="1" vertex="1">
          <mxGeometry x="1100" y="220" width="150" height="60" as="geometry" />
        </mxCell>
        <mxCell id="E4YLymmsPlQUMgWz-ke0-28" style="edgeStyle=orthogonalEdgeStyle;rounded=0;orthogonalLoop=1;jettySize=auto;html=1;entryX=0.5;entryY=1;entryDx=0;entryDy=0;shape=link;" parent="1" source="rjwv_-UmsnpMQfWyNfDe-16" target="E4YLymmsPlQUMgWz-ke0-26" edge="1">
          <mxGeometry relative="1" as="geometry" />
        </mxCell>
        <mxCell id="E4YLymmsPlQUMgWz-ke0-33" style="edgeStyle=orthogonalEdgeStyle;rounded=0;orthogonalLoop=1;jettySize=auto;html=1;entryX=1;entryY=0.5;entryDx=0;entryDy=0;" parent="1" source="rjwv_-UmsnpMQfWyNfDe-16" target="E4YLymmsPlQUMgWz-ke0-32" edge="1">
          <mxGeometry relative="1" as="geometry" />
        </mxCell>
        <mxCell id="rjwv_-UmsnpMQfWyNfDe-16" value="&lt;font style=&quot;font-size: 24px;&quot;&gt;Account&lt;/font&gt;" style="rounded=0;whiteSpace=wrap;html=1;" parent="1" vertex="1">
          <mxGeometry x="1040" y="630" width="150" height="60" as="geometry" />
        </mxCell>
        <mxCell id="E4YLymmsPlQUMgWz-ke0-34" style="edgeStyle=orthogonalEdgeStyle;rounded=0;orthogonalLoop=1;jettySize=auto;html=1;entryX=0;entryY=0.5;entryDx=0;entryDy=0;shape=link;" parent="1" source="rjwv_-UmsnpMQfWyNfDe-17" target="E4YLymmsPlQUMgWz-ke0-32" edge="1">
          <mxGeometry relative="1" as="geometry">
            <Array as="points">
              <mxPoint x="780" y="1320" />
              <mxPoint x="780" y="820" />
              <mxPoint x="830" y="820" />
              <mxPoint x="830" y="660" />
            </Array>
          </mxGeometry>
        </mxCell>
        <mxCell id="rjwv_-UmsnpMQfWyNfDe-25" value="" style="group" parent="1" vertex="1" connectable="0">
          <mxGeometry x="90" y="90" width="170" height="60" as="geometry" />
        </mxCell>
        <mxCell id="rjwv_-UmsnpMQfWyNfDe-11" value="&lt;font style=&quot;font-size: 24px;&quot;&gt;Bank&lt;/font&gt;" style="rounded=0;whiteSpace=wrap;html=1;" parent="rjwv_-UmsnpMQfWyNfDe-25" vertex="1">
          <mxGeometry width="120" height="60" as="geometry" />
        </mxCell>
        <mxCell id="rjwv_-UmsnpMQfWyNfDe-26" value="" style="group" parent="1" vertex="1" connectable="0">
          <mxGeometry x="580" y="127.5" width="170" height="65" as="geometry" />
        </mxCell>
        <mxCell id="rjwv_-UmsnpMQfWyNfDe-12" value="&lt;font style=&quot;font-size: 24px;&quot;&gt;Branch&lt;/font&gt;" style="rounded=0;whiteSpace=wrap;html=1;" parent="rjwv_-UmsnpMQfWyNfDe-26" vertex="1">
          <mxGeometry x="50" y="5" width="120" height="60" as="geometry" />
        </mxCell>
        <mxCell id="E4YLymmsPlQUMgWz-ke0-2" style="edgeStyle=orthogonalEdgeStyle;rounded=0;orthogonalLoop=1;jettySize=auto;html=1;entryX=0.5;entryY=1;entryDx=0;entryDy=0;" parent="1" source="E4YLymmsPlQUMgWz-ke0-1" target="rjwv_-UmsnpMQfWyNfDe-12" edge="1">
          <mxGeometry relative="1" as="geometry" />
        </mxCell>
        <mxCell id="E4YLymmsPlQUMgWz-ke0-4" value="" style="group" parent="1" vertex="1" connectable="0">
          <mxGeometry x="320" y="120" width="180" height="80" as="geometry" />
        </mxCell>
        <mxCell id="rjwv_-UmsnpMQfWyNfDe-20" value="&lt;font style=&quot;font-size: 18px;&quot;&gt;Has&lt;/font&gt;" style="rhombus;whiteSpace=wrap;html=1;" parent="E4YLymmsPlQUMgWz-ke0-4" vertex="1">
          <mxGeometry x="50" width="80" height="80" as="geometry" />
        </mxCell>
        <mxCell id="rjwv_-UmsnpMQfWyNfDe-23" value="&lt;font style=&quot;font-size: 18px;&quot;&gt;1&lt;/font&gt;" style="text;html=1;strokeColor=none;fillColor=none;align=center;verticalAlign=middle;whiteSpace=wrap;rounded=0;" parent="E4YLymmsPlQUMgWz-ke0-4" vertex="1">
          <mxGeometry y="5" width="60" height="30" as="geometry" />
        </mxCell>
        <mxCell id="rjwv_-UmsnpMQfWyNfDe-24" value="&lt;font style=&quot;font-size: 18px;&quot;&gt;M&lt;/font&gt;" style="text;html=1;strokeColor=none;fillColor=none;align=center;verticalAlign=middle;whiteSpace=wrap;rounded=0;" parent="E4YLymmsPlQUMgWz-ke0-4" vertex="1">
          <mxGeometry x="120" width="60" height="30" as="geometry" />
        </mxCell>
        <mxCell id="E4YLymmsPlQUMgWz-ke0-9" style="edgeStyle=orthogonalEdgeStyle;rounded=0;orthogonalLoop=1;jettySize=auto;html=1;entryX=0.5;entryY=1;entryDx=0;entryDy=0;" parent="1" source="E4YLymmsPlQUMgWz-ke0-7" target="rjwv_-UmsnpMQfWyNfDe-11" edge="1">
          <mxGeometry relative="1" as="geometry">
            <Array as="points">
              <mxPoint x="40" y="270" />
              <mxPoint x="150" y="270" />
            </Array>
          </mxGeometry>
        </mxCell>
        <mxCell id="E4YLymmsPlQUMgWz-ke0-21" style="edgeStyle=orthogonalEdgeStyle;rounded=0;orthogonalLoop=1;jettySize=auto;html=1;entryX=1;entryY=0.5;entryDx=0;entryDy=0;" parent="1" source="E4YLymmsPlQUMgWz-ke0-20" target="rjwv_-UmsnpMQfWyNfDe-12" edge="1">
          <mxGeometry relative="1" as="geometry" />
        </mxCell>
        <mxCell id="E4YLymmsPlQUMgWz-ke0-22" style="edgeStyle=orthogonalEdgeStyle;rounded=0;orthogonalLoop=1;jettySize=auto;html=1;entryX=0;entryY=0.5;entryDx=0;entryDy=0;shape=link;" parent="1" source="E4YLymmsPlQUMgWz-ke0-20" target="rjwv_-UmsnpMQfWyNfDe-15" edge="1">
          <mxGeometry relative="1" as="geometry" />
        </mxCell>
        <mxCell id="E4YLymmsPlQUMgWz-ke0-25" value="" style="group" parent="1" vertex="1" connectable="0">
          <mxGeometry x="810" y="130" width="160" height="80" as="geometry" />
        </mxCell>
        <mxCell id="E4YLymmsPlQUMgWz-ke0-20" value="&lt;font style=&quot;font-size: 18px;&quot;&gt;Have&lt;/font&gt;" style="rhombus;whiteSpace=wrap;html=1;" parent="E4YLymmsPlQUMgWz-ke0-25" vertex="1">
          <mxGeometry x="40" width="80" height="80" as="geometry" />
        </mxCell>
        <mxCell id="E4YLymmsPlQUMgWz-ke0-23" value="&lt;font style=&quot;font-size: 18px;&quot;&gt;M&lt;/font&gt;" style="text;html=1;strokeColor=none;fillColor=none;align=center;verticalAlign=middle;whiteSpace=wrap;rounded=0;" parent="E4YLymmsPlQUMgWz-ke0-25" vertex="1">
          <mxGeometry x="100" y="10" width="60" height="30" as="geometry" />
        </mxCell>
        <mxCell id="E4YLymmsPlQUMgWz-ke0-24" value="&lt;font style=&quot;font-size: 18px;&quot;&gt;1&lt;/font&gt;" style="text;html=1;strokeColor=none;fillColor=none;align=center;verticalAlign=middle;whiteSpace=wrap;rounded=0;" parent="E4YLymmsPlQUMgWz-ke0-25" vertex="1">
          <mxGeometry width="60" height="30" as="geometry" />
        </mxCell>
        <mxCell id="E4YLymmsPlQUMgWz-ke0-31" value="" style="group" parent="1" vertex="1" connectable="0">
          <mxGeometry x="1120" y="380" width="95" height="110" as="geometry" />
        </mxCell>
        <mxCell id="E4YLymmsPlQUMgWz-ke0-26" value="&lt;font style=&quot;font-size: 18px;&quot;&gt;Has&lt;/font&gt;" style="rhombus;whiteSpace=wrap;html=1;" parent="E4YLymmsPlQUMgWz-ke0-31" vertex="1">
          <mxGeometry x="15" y="10" width="80" height="80" as="geometry" />
        </mxCell>
        <mxCell id="E4YLymmsPlQUMgWz-ke0-29" value="&lt;font style=&quot;font-size: 18px;&quot;&gt;M&lt;/font&gt;" style="text;html=1;strokeColor=none;fillColor=none;align=center;verticalAlign=middle;whiteSpace=wrap;rounded=0;" parent="E4YLymmsPlQUMgWz-ke0-31" vertex="1">
          <mxGeometry y="80" width="60" height="30" as="geometry" />
        </mxCell>
        <mxCell id="E4YLymmsPlQUMgWz-ke0-30" value="&lt;font style=&quot;font-size: 18px;&quot;&gt;1&lt;/font&gt;" style="text;html=1;strokeColor=none;fillColor=none;align=center;verticalAlign=middle;whiteSpace=wrap;rounded=0;" parent="E4YLymmsPlQUMgWz-ke0-31" vertex="1">
          <mxGeometry width="60" height="30" as="geometry" />
        </mxCell>
        <mxCell id="E4YLymmsPlQUMgWz-ke0-37" value="" style="group" parent="1" vertex="1" connectable="0">
          <mxGeometry x="830" y="620" width="150" height="80" as="geometry" />
        </mxCell>
        <mxCell id="E4YLymmsPlQUMgWz-ke0-32" value="&lt;font style=&quot;font-size: 18px;&quot;&gt;Have&lt;/font&gt;" style="rhombus;whiteSpace=wrap;html=1;" parent="E4YLymmsPlQUMgWz-ke0-37" vertex="1">
          <mxGeometry x="40" width="80" height="80" as="geometry" />
        </mxCell>
        <mxCell id="E4YLymmsPlQUMgWz-ke0-35" value="&lt;font style=&quot;font-size: 18px;&quot;&gt;1&lt;/font&gt;" style="text;html=1;strokeColor=none;fillColor=none;align=center;verticalAlign=middle;whiteSpace=wrap;rounded=0;" parent="E4YLymmsPlQUMgWz-ke0-37" vertex="1">
          <mxGeometry x="90" y="10" width="60" height="30" as="geometry" />
        </mxCell>
        <mxCell id="E4YLymmsPlQUMgWz-ke0-36" value="&lt;font style=&quot;font-size: 18px;&quot;&gt;M&lt;/font&gt;" style="text;html=1;strokeColor=none;fillColor=none;align=center;verticalAlign=middle;whiteSpace=wrap;rounded=0;" parent="E4YLymmsPlQUMgWz-ke0-37" vertex="1">
          <mxGeometry y="10" width="60" height="30" as="geometry" />
        </mxCell>
        <mxCell id="E4YLymmsPlQUMgWz-ke0-39" style="edgeStyle=orthogonalEdgeStyle;rounded=0;orthogonalLoop=1;jettySize=auto;html=1;" parent="1" source="E4YLymmsPlQUMgWz-ke0-38" target="rjwv_-UmsnpMQfWyNfDe-16" edge="1">
          <mxGeometry relative="1" as="geometry" />
        </mxCell>
        <mxCell id="E4YLymmsPlQUMgWz-ke0-40" style="edgeStyle=orthogonalEdgeStyle;rounded=0;orthogonalLoop=1;jettySize=auto;html=1;entryX=0.5;entryY=0;entryDx=0;entryDy=0;shape=link;" parent="1" source="E4YLymmsPlQUMgWz-ke0-38" target="rjwv_-UmsnpMQfWyNfDe-18" edge="1">
          <mxGeometry relative="1" as="geometry" />
        </mxCell>
        <mxCell id="E4YLymmsPlQUMgWz-ke0-43" value="" style="group" parent="1" vertex="1" connectable="0">
          <mxGeometry x="1055" y="750" width="100" height="120" as="geometry" />
        </mxCell>
        <mxCell id="E4YLymmsPlQUMgWz-ke0-38" value="&lt;font style=&quot;font-size: 18px;&quot;&gt;Leon&lt;br&gt;&lt;/font&gt;" style="rhombus;whiteSpace=wrap;html=1;" parent="E4YLymmsPlQUMgWz-ke0-43" vertex="1">
          <mxGeometry x="20" y="20" width="80" height="80" as="geometry" />
        </mxCell>
        <mxCell id="E4YLymmsPlQUMgWz-ke0-41" value="&lt;font style=&quot;font-size: 18px;&quot;&gt;1&lt;/font&gt;" style="text;html=1;strokeColor=none;fillColor=none;align=center;verticalAlign=middle;whiteSpace=wrap;rounded=0;" parent="E4YLymmsPlQUMgWz-ke0-43" vertex="1">
          <mxGeometry x="5" width="60" height="30" as="geometry" />
        </mxCell>
        <mxCell id="E4YLymmsPlQUMgWz-ke0-42" value="&lt;font style=&quot;font-size: 18px;&quot;&gt;1&lt;/font&gt;" style="text;html=1;strokeColor=none;fillColor=none;align=center;verticalAlign=middle;whiteSpace=wrap;rounded=0;" parent="E4YLymmsPlQUMgWz-ke0-43" vertex="1">
          <mxGeometry y="90" width="60" height="30" as="geometry" />
        </mxCell>
        <mxCell id="E4YLymmsPlQUMgWz-ke0-51" style="edgeStyle=orthogonalEdgeStyle;rounded=0;orthogonalLoop=1;jettySize=auto;html=1;entryX=0.25;entryY=0;entryDx=0;entryDy=0;" parent="1" source="E4YLymmsPlQUMgWz-ke0-50" target="rjwv_-UmsnpMQfWyNfDe-11" edge="1">
          <mxGeometry relative="1" as="geometry" />
        </mxCell>
        <mxCell id="E4YLymmsPlQUMgWz-ke0-53" style="edgeStyle=orthogonalEdgeStyle;rounded=0;orthogonalLoop=1;jettySize=auto;html=1;" parent="1" source="E4YLymmsPlQUMgWz-ke0-52" target="rjwv_-UmsnpMQfWyNfDe-11" edge="1">
          <mxGeometry relative="1" as="geometry">
            <Array as="points">
              <mxPoint x="135" />
              <mxPoint x="160" />
            </Array>
          </mxGeometry>
        </mxCell>
        <mxCell id="E4YLymmsPlQUMgWz-ke0-55" style="edgeStyle=orthogonalEdgeStyle;rounded=0;orthogonalLoop=1;jettySize=auto;html=1;entryX=0.75;entryY=0;entryDx=0;entryDy=0;" parent="1" source="E4YLymmsPlQUMgWz-ke0-54" target="rjwv_-UmsnpMQfWyNfDe-11" edge="1">
          <mxGeometry relative="1" as="geometry" />
        </mxCell>
        <mxCell id="1cDxflDGtytfyRIqgx2e-1" style="edgeStyle=orthogonalEdgeStyle;rounded=0;orthogonalLoop=1;jettySize=auto;html=1;entryX=1;entryY=0.25;entryDx=0;entryDy=0;" edge="1" parent="1" source="E4YLymmsPlQUMgWz-ke0-58" target="rjwv_-UmsnpMQfWyNfDe-11">
          <mxGeometry relative="1" as="geometry">
            <Array as="points">
              <mxPoint x="410" y="20" />
              <mxPoint x="290" y="20" />
              <mxPoint x="290" y="105" />
            </Array>
          </mxGeometry>
        </mxCell>
        <mxCell id="1cDxflDGtytfyRIqgx2e-6" style="edgeStyle=orthogonalEdgeStyle;rounded=0;orthogonalLoop=1;jettySize=auto;html=1;entryX=0;entryY=0.25;entryDx=0;entryDy=0;" edge="1" parent="1" source="1cDxflDGtytfyRIqgx2e-3" target="rjwv_-UmsnpMQfWyNfDe-11">
          <mxGeometry relative="1" as="geometry" />
        </mxCell>
        <mxCell id="1cDxflDGtytfyRIqgx2e-20" value="" style="group" vertex="1" connectable="0" parent="1">
          <mxGeometry x="-670" y="-120" width="425" height="390" as="geometry" />
        </mxCell>
        <mxCell id="1cDxflDGtytfyRIqgx2e-16" value="" style="group" vertex="1" connectable="0" parent="1cDxflDGtytfyRIqgx2e-20">
          <mxGeometry width="425" height="310" as="geometry" />
        </mxCell>
        <mxCell id="1cDxflDGtytfyRIqgx2e-19" value="" style="group" vertex="1" connectable="0" parent="1cDxflDGtytfyRIqgx2e-16">
          <mxGeometry width="330" height="310" as="geometry" />
        </mxCell>
        <mxCell id="1cDxflDGtytfyRIqgx2e-5" value="" style="group" vertex="1" connectable="0" parent="1cDxflDGtytfyRIqgx2e-19">
          <mxGeometry x="200" y="90" width="130" height="90" as="geometry" />
        </mxCell>
        <mxCell id="1cDxflDGtytfyRIqgx2e-4" value="" style="ellipse;whiteSpace=wrap;html=1;" vertex="1" parent="1cDxflDGtytfyRIqgx2e-5">
          <mxGeometry width="130" height="90" as="geometry" />
        </mxCell>
        <mxCell id="1cDxflDGtytfyRIqgx2e-3" value="&lt;font style=&quot;font-size: 18px;&quot;&gt;Address&lt;/font&gt;" style="ellipse;whiteSpace=wrap;html=1;" vertex="1" parent="1cDxflDGtytfyRIqgx2e-5">
          <mxGeometry x="10" y="6.25" width="110" height="77.5" as="geometry" />
        </mxCell>
        <mxCell id="1cDxflDGtytfyRIqgx2e-9" style="edgeStyle=orthogonalEdgeStyle;rounded=0;orthogonalLoop=1;jettySize=auto;html=1;exitX=1;exitY=0.5;exitDx=0;exitDy=0;entryX=0.5;entryY=0;entryDx=0;entryDy=0;" edge="1" parent="1cDxflDGtytfyRIqgx2e-19" source="1cDxflDGtytfyRIqgx2e-8" target="1cDxflDGtytfyRIqgx2e-3">
          <mxGeometry relative="1" as="geometry">
            <Array as="points">
              <mxPoint x="150" y="30" />
              <mxPoint x="190" y="30" />
              <mxPoint x="190" y="60" />
              <mxPoint x="265" y="60" />
            </Array>
          </mxGeometry>
        </mxCell>
        <mxCell id="1cDxflDGtytfyRIqgx2e-8" value="&lt;font style=&quot;font-size: 18px;&quot;&gt;City&lt;/font&gt;" style="ellipse;whiteSpace=wrap;html=1;" vertex="1" parent="1cDxflDGtytfyRIqgx2e-19">
          <mxGeometry x="50" width="100" height="70" as="geometry" />
        </mxCell>
        <mxCell id="1cDxflDGtytfyRIqgx2e-11" style="edgeStyle=orthogonalEdgeStyle;rounded=0;orthogonalLoop=1;jettySize=auto;html=1;entryX=0.285;entryY=0.053;entryDx=0;entryDy=0;entryPerimeter=0;" edge="1" parent="1cDxflDGtytfyRIqgx2e-19" source="1cDxflDGtytfyRIqgx2e-10" target="1cDxflDGtytfyRIqgx2e-4">
          <mxGeometry relative="1" as="geometry" />
        </mxCell>
        <mxCell id="1cDxflDGtytfyRIqgx2e-10" value="&lt;font style=&quot;font-size: 18px;&quot;&gt;State&lt;/font&gt;" style="ellipse;whiteSpace=wrap;html=1;" vertex="1" parent="1cDxflDGtytfyRIqgx2e-19">
          <mxGeometry x="20" y="82.5" width="100" height="70" as="geometry" />
        </mxCell>
        <mxCell id="1cDxflDGtytfyRIqgx2e-13" style="edgeStyle=orthogonalEdgeStyle;rounded=0;orthogonalLoop=1;jettySize=auto;html=1;entryX=0;entryY=0.5;entryDx=0;entryDy=0;" edge="1" parent="1cDxflDGtytfyRIqgx2e-19" source="1cDxflDGtytfyRIqgx2e-12" target="1cDxflDGtytfyRIqgx2e-4">
          <mxGeometry relative="1" as="geometry" />
        </mxCell>
        <mxCell id="1cDxflDGtytfyRIqgx2e-12" value="&lt;font style=&quot;font-size: 18px;&quot;&gt;ZipCode&lt;/font&gt;" style="ellipse;whiteSpace=wrap;html=1;" vertex="1" parent="1cDxflDGtytfyRIqgx2e-19">
          <mxGeometry y="172.5" width="100" height="70" as="geometry" />
        </mxCell>
        <mxCell id="1cDxflDGtytfyRIqgx2e-15" style="edgeStyle=orthogonalEdgeStyle;rounded=0;orthogonalLoop=1;jettySize=auto;html=1;exitX=0.5;exitY=1;exitDx=0;exitDy=0;entryX=0.5;entryY=1;entryDx=0;entryDy=0;" edge="1" parent="1cDxflDGtytfyRIqgx2e-19" source="1cDxflDGtytfyRIqgx2e-14" target="1cDxflDGtytfyRIqgx2e-3">
          <mxGeometry relative="1" as="geometry">
            <mxPoint x="240" y="360" as="targetPoint" />
            <Array as="points">
              <mxPoint x="110" y="265" />
              <mxPoint x="265" y="265" />
            </Array>
          </mxGeometry>
        </mxCell>
        <mxCell id="1cDxflDGtytfyRIqgx2e-14" value="&lt;font style=&quot;font-size: 18px;&quot;&gt;Country&lt;/font&gt;" style="ellipse;whiteSpace=wrap;html=1;" vertex="1" parent="1cDxflDGtytfyRIqgx2e-19">
          <mxGeometry x="60" y="240" width="100" height="70" as="geometry" />
        </mxCell>
        <mxCell id="1cDxflDGtytfyRIqgx2e-18" style="edgeStyle=orthogonalEdgeStyle;rounded=0;orthogonalLoop=1;jettySize=auto;html=1;entryX=1;entryY=1;entryDx=0;entryDy=0;" edge="1" parent="1cDxflDGtytfyRIqgx2e-20" source="1cDxflDGtytfyRIqgx2e-17" target="1cDxflDGtytfyRIqgx2e-4">
          <mxGeometry relative="1" as="geometry">
            <Array as="points">
              <mxPoint x="270" y="280" />
              <mxPoint x="311" y="280" />
            </Array>
          </mxGeometry>
        </mxCell>
        <mxCell id="1cDxflDGtytfyRIqgx2e-17" value="&lt;font style=&quot;font-size: 18px;&quot;&gt;AddressType&lt;/font&gt;" style="ellipse;whiteSpace=wrap;html=1;" vertex="1" parent="1cDxflDGtytfyRIqgx2e-20">
          <mxGeometry x="100" y="320" width="120" height="70" as="geometry" />
        </mxCell>
        <mxCell id="1cDxflDGtytfyRIqgx2e-28" value="" style="group" vertex="1" connectable="0" parent="1">
          <mxGeometry x="1380" y="-40" width="260" height="205" as="geometry" />
        </mxCell>
        <mxCell id="1cDxflDGtytfyRIqgx2e-29" value="&lt;font style=&quot;font-size: 18px;&quot;&gt;Email_Address&lt;/font&gt;" style="ellipse;whiteSpace=wrap;html=1;" vertex="1" parent="1cDxflDGtytfyRIqgx2e-28">
          <mxGeometry width="150" height="70" as="geometry" />
        </mxCell>
        <mxCell id="1cDxflDGtytfyRIqgx2e-30" value="" style="group" vertex="1" connectable="0" parent="1cDxflDGtytfyRIqgx2e-28">
          <mxGeometry y="120" width="120" height="85" as="geometry" />
        </mxCell>
        <mxCell id="1cDxflDGtytfyRIqgx2e-31" value="" style="ellipse;whiteSpace=wrap;html=1;" vertex="1" parent="1cDxflDGtytfyRIqgx2e-30">
          <mxGeometry width="120" height="85" as="geometry" />
        </mxCell>
        <mxCell id="1cDxflDGtytfyRIqgx2e-32" value="&lt;font style=&quot;font-size: 18px;&quot;&gt;Email&lt;/font&gt;" style="ellipse;whiteSpace=wrap;html=1;" vertex="1" parent="1cDxflDGtytfyRIqgx2e-30">
          <mxGeometry x="10" y="7.5" width="100" height="70" as="geometry" />
        </mxCell>
        <mxCell id="1cDxflDGtytfyRIqgx2e-33" style="edgeStyle=orthogonalEdgeStyle;rounded=0;orthogonalLoop=1;jettySize=auto;html=1;entryX=0;entryY=0;entryDx=0;entryDy=0;" edge="1" parent="1cDxflDGtytfyRIqgx2e-28" source="1cDxflDGtytfyRIqgx2e-29" target="1cDxflDGtytfyRIqgx2e-31">
          <mxGeometry relative="1" as="geometry" />
        </mxCell>
        <mxCell id="1cDxflDGtytfyRIqgx2e-34" style="edgeStyle=orthogonalEdgeStyle;rounded=0;orthogonalLoop=1;jettySize=auto;html=1;entryX=1;entryY=0;entryDx=0;entryDy=0;" edge="1" parent="1cDxflDGtytfyRIqgx2e-28" source="1cDxflDGtytfyRIqgx2e-35" target="1cDxflDGtytfyRIqgx2e-31">
          <mxGeometry relative="1" as="geometry" />
        </mxCell>
        <mxCell id="1cDxflDGtytfyRIqgx2e-35" value="&lt;font style=&quot;font-size: 18px;&quot;&gt;EmailType&lt;/font&gt;" style="ellipse;whiteSpace=wrap;html=1;" vertex="1" parent="1cDxflDGtytfyRIqgx2e-28">
          <mxGeometry x="160" y="50" width="100" height="70" as="geometry" />
        </mxCell>
        <mxCell id="1cDxflDGtytfyRIqgx2e-36" style="edgeStyle=orthogonalEdgeStyle;rounded=0;orthogonalLoop=1;jettySize=auto;html=1;entryX=1;entryY=0.25;entryDx=0;entryDy=0;" edge="1" parent="1" source="1cDxflDGtytfyRIqgx2e-31" target="rjwv_-UmsnpMQfWyNfDe-15">
          <mxGeometry relative="1" as="geometry" />
        </mxCell>
        <mxCell id="1cDxflDGtytfyRIqgx2e-42" value="" style="group" vertex="1" connectable="0" parent="1">
          <mxGeometry x="1190" y="-120" width="210" height="180" as="geometry" />
        </mxCell>
        <mxCell id="1cDxflDGtytfyRIqgx2e-37" value="&lt;span style=&quot;font-size: 18px;&quot;&gt;Name&lt;/span&gt;" style="ellipse;whiteSpace=wrap;html=1;" vertex="1" parent="1cDxflDGtytfyRIqgx2e-42">
          <mxGeometry x="30" y="110" width="100" height="70" as="geometry" />
        </mxCell>
        <mxCell id="1cDxflDGtytfyRIqgx2e-40" style="edgeStyle=orthogonalEdgeStyle;rounded=0;orthogonalLoop=1;jettySize=auto;html=1;" edge="1" parent="1cDxflDGtytfyRIqgx2e-42" source="1cDxflDGtytfyRIqgx2e-38" target="1cDxflDGtytfyRIqgx2e-37">
          <mxGeometry relative="1" as="geometry" />
        </mxCell>
        <mxCell id="1cDxflDGtytfyRIqgx2e-38" value="&lt;span style=&quot;font-size: 18px;&quot;&gt;FName&lt;/span&gt;" style="ellipse;whiteSpace=wrap;html=1;" vertex="1" parent="1cDxflDGtytfyRIqgx2e-42">
          <mxGeometry width="100" height="70" as="geometry" />
        </mxCell>
        <mxCell id="1cDxflDGtytfyRIqgx2e-41" style="edgeStyle=orthogonalEdgeStyle;rounded=0;orthogonalLoop=1;jettySize=auto;html=1;" edge="1" parent="1cDxflDGtytfyRIqgx2e-42" source="1cDxflDGtytfyRIqgx2e-39">
          <mxGeometry relative="1" as="geometry">
            <mxPoint x="80" y="110" as="targetPoint" />
            <Array as="points">
              <mxPoint x="170" y="100" />
              <mxPoint x="80" y="100" />
            </Array>
          </mxGeometry>
        </mxCell>
        <mxCell id="1cDxflDGtytfyRIqgx2e-39" value="&lt;span style=&quot;font-size: 18px;&quot;&gt;LName&lt;/span&gt;" style="ellipse;whiteSpace=wrap;html=1;" vertex="1" parent="1cDxflDGtytfyRIqgx2e-42">
          <mxGeometry x="110" width="100" height="70" as="geometry" />
        </mxCell>
        <mxCell id="1cDxflDGtytfyRIqgx2e-43" style="edgeStyle=orthogonalEdgeStyle;rounded=0;orthogonalLoop=1;jettySize=auto;html=1;entryX=0.75;entryY=0;entryDx=0;entryDy=0;" edge="1" parent="1" source="1cDxflDGtytfyRIqgx2e-37" target="rjwv_-UmsnpMQfWyNfDe-15">
          <mxGeometry relative="1" as="geometry" />
        </mxCell>
        <mxCell id="1cDxflDGtytfyRIqgx2e-44" value="" style="group" vertex="1" connectable="0" parent="1">
          <mxGeometry x="970" y="35" width="120" height="85" as="geometry" />
        </mxCell>
        <mxCell id="1cDxflDGtytfyRIqgx2e-45" value="" style="ellipse;whiteSpace=wrap;html=1;" vertex="1" parent="1cDxflDGtytfyRIqgx2e-44">
          <mxGeometry width="120" height="85" as="geometry" />
        </mxCell>
        <mxCell id="1cDxflDGtytfyRIqgx2e-46" value="&lt;font style=&quot;font-size: 18px;&quot;&gt;PhoneNum&lt;/font&gt;" style="ellipse;whiteSpace=wrap;html=1;" vertex="1" parent="1cDxflDGtytfyRIqgx2e-44">
          <mxGeometry x="10" y="7.5" width="100" height="70" as="geometry" />
        </mxCell>
        <mxCell id="1cDxflDGtytfyRIqgx2e-48" style="edgeStyle=orthogonalEdgeStyle;rounded=0;orthogonalLoop=1;jettySize=auto;html=1;entryX=0.133;entryY=0;entryDx=0;entryDy=0;entryPerimeter=0;" edge="1" parent="1" source="1cDxflDGtytfyRIqgx2e-46" target="rjwv_-UmsnpMQfWyNfDe-15">
          <mxGeometry relative="1" as="geometry">
            <Array as="points">
              <mxPoint x="1070" y="160" />
              <mxPoint x="1120" y="160" />
            </Array>
          </mxGeometry>
        </mxCell>
        <mxCell id="1cDxflDGtytfyRIqgx2e-50" style="edgeStyle=orthogonalEdgeStyle;rounded=0;orthogonalLoop=1;jettySize=auto;html=1;entryX=0.25;entryY=0;entryDx=0;entryDy=0;" edge="1" parent="1" source="1cDxflDGtytfyRIqgx2e-49" target="rjwv_-UmsnpMQfWyNfDe-15">
          <mxGeometry relative="1" as="geometry">
            <Array as="points">
              <mxPoint x="1150" y="129" />
              <mxPoint x="1138" y="129" />
            </Array>
          </mxGeometry>
        </mxCell>
        <mxCell id="1cDxflDGtytfyRIqgx2e-49" value="&lt;span style=&quot;font-size: 18px;&quot;&gt;&lt;u&gt;CusID&lt;/u&gt;&lt;/span&gt;" style="ellipse;whiteSpace=wrap;html=1;" vertex="1" parent="1">
          <mxGeometry x="1090" y="-32.5" width="100" height="70" as="geometry" />
        </mxCell>
        <mxCell id="1cDxflDGtytfyRIqgx2e-52" style="edgeStyle=orthogonalEdgeStyle;rounded=0;orthogonalLoop=1;jettySize=auto;html=1;entryX=1;entryY=0.25;entryDx=0;entryDy=0;" edge="1" parent="1" source="1cDxflDGtytfyRIqgx2e-51" target="rjwv_-UmsnpMQfWyNfDe-16">
          <mxGeometry relative="1" as="geometry" />
        </mxCell>
        <mxCell id="1cDxflDGtytfyRIqgx2e-54" style="edgeStyle=orthogonalEdgeStyle;rounded=0;orthogonalLoop=1;jettySize=auto;html=1;entryX=1;entryY=0.5;entryDx=0;entryDy=0;" edge="1" parent="1" source="1cDxflDGtytfyRIqgx2e-53" target="rjwv_-UmsnpMQfWyNfDe-16">
          <mxGeometry relative="1" as="geometry">
            <Array as="points">
              <mxPoint x="1285" y="630" />
              <mxPoint x="1285" y="660" />
            </Array>
          </mxGeometry>
        </mxCell>
        <mxCell id="1cDxflDGtytfyRIqgx2e-56" style="edgeStyle=orthogonalEdgeStyle;rounded=0;orthogonalLoop=1;jettySize=auto;html=1;entryX=1;entryY=0.75;entryDx=0;entryDy=0;" edge="1" parent="1" source="1cDxflDGtytfyRIqgx2e-55" target="rjwv_-UmsnpMQfWyNfDe-16">
          <mxGeometry relative="1" as="geometry" />
        </mxCell>
        <mxCell id="1cDxflDGtytfyRIqgx2e-57" value="" style="group" vertex="1" connectable="0" parent="1">
          <mxGeometry x="1330" y="530" width="210" height="240" as="geometry" />
        </mxCell>
        <mxCell id="1cDxflDGtytfyRIqgx2e-51" value="&lt;span style=&quot;font-size: 18px;&quot;&gt;&lt;u&gt;AccountID&lt;/u&gt;&lt;/span&gt;" style="ellipse;whiteSpace=wrap;html=1;" vertex="1" parent="1cDxflDGtytfyRIqgx2e-57">
          <mxGeometry width="120" height="80" as="geometry" />
        </mxCell>
        <mxCell id="1cDxflDGtytfyRIqgx2e-53" value="&lt;font style=&quot;font-size: 18px;&quot;&gt;Balance&lt;/font&gt;" style="ellipse;whiteSpace=wrap;html=1;" vertex="1" parent="1cDxflDGtytfyRIqgx2e-57">
          <mxGeometry x="120" y="70" width="80" height="70" as="geometry" />
        </mxCell>
        <mxCell id="1cDxflDGtytfyRIqgx2e-55" value="&lt;span style=&quot;font-size: 18px;&quot;&gt;AccountType&lt;/span&gt;" style="ellipse;whiteSpace=wrap;html=1;" vertex="1" parent="1cDxflDGtytfyRIqgx2e-57">
          <mxGeometry x="90" y="160" width="120" height="80" as="geometry" />
        </mxCell>
        <mxCell id="1cDxflDGtytfyRIqgx2e-66" value="" style="group" vertex="1" connectable="0" parent="1">
          <mxGeometry x="320" y="1140" width="310" height="290" as="geometry" />
        </mxCell>
        <mxCell id="rjwv_-UmsnpMQfWyNfDe-17" value="&lt;font style=&quot;font-size: 24px;&quot;&gt;Transaction&lt;/font&gt;" style="rounded=0;whiteSpace=wrap;html=1;" parent="1cDxflDGtytfyRIqgx2e-66" vertex="1">
          <mxGeometry x="150" y="150" width="150" height="60" as="geometry" />
        </mxCell>
        <mxCell id="1cDxflDGtytfyRIqgx2e-59" style="edgeStyle=orthogonalEdgeStyle;rounded=0;orthogonalLoop=1;jettySize=auto;html=1;entryX=0.25;entryY=0;entryDx=0;entryDy=0;" edge="1" parent="1cDxflDGtytfyRIqgx2e-66" source="1cDxflDGtytfyRIqgx2e-58" target="rjwv_-UmsnpMQfWyNfDe-17">
          <mxGeometry relative="1" as="geometry" />
        </mxCell>
        <mxCell id="1cDxflDGtytfyRIqgx2e-58" value="&lt;span style=&quot;font-size: 18px;&quot;&gt;&lt;u&gt;TransID&lt;/u&gt;&lt;/span&gt;" style="ellipse;whiteSpace=wrap;html=1;" vertex="1" parent="1cDxflDGtytfyRIqgx2e-66">
          <mxGeometry x="20" y="30" width="100" height="70" as="geometry" />
        </mxCell>
        <mxCell id="1cDxflDGtytfyRIqgx2e-61" style="edgeStyle=orthogonalEdgeStyle;rounded=0;orthogonalLoop=1;jettySize=auto;html=1;" edge="1" parent="1cDxflDGtytfyRIqgx2e-66" source="1cDxflDGtytfyRIqgx2e-60" target="rjwv_-UmsnpMQfWyNfDe-17">
          <mxGeometry relative="1" as="geometry" />
        </mxCell>
        <mxCell id="1cDxflDGtytfyRIqgx2e-60" value="&lt;span style=&quot;font-size: 18px;&quot;&gt;TransType&lt;/span&gt;" style="ellipse;whiteSpace=wrap;html=1;" vertex="1" parent="1cDxflDGtytfyRIqgx2e-66">
          <mxGeometry x="210" width="100" height="70" as="geometry" />
        </mxCell>
        <mxCell id="1cDxflDGtytfyRIqgx2e-63" style="edgeStyle=orthogonalEdgeStyle;rounded=0;orthogonalLoop=1;jettySize=auto;html=1;entryX=0;entryY=0.25;entryDx=0;entryDy=0;" edge="1" parent="1cDxflDGtytfyRIqgx2e-66" source="1cDxflDGtytfyRIqgx2e-62" target="rjwv_-UmsnpMQfWyNfDe-17">
          <mxGeometry relative="1" as="geometry" />
        </mxCell>
        <mxCell id="1cDxflDGtytfyRIqgx2e-62" value="&lt;span style=&quot;font-size: 18px;&quot;&gt;Amount&lt;/span&gt;" style="ellipse;whiteSpace=wrap;html=1;" vertex="1" parent="1cDxflDGtytfyRIqgx2e-66">
          <mxGeometry x="20" y="110" width="80" height="60" as="geometry" />
        </mxCell>
        <mxCell id="1cDxflDGtytfyRIqgx2e-65" style="edgeStyle=orthogonalEdgeStyle;rounded=0;orthogonalLoop=1;jettySize=auto;html=1;entryX=0.25;entryY=1;entryDx=0;entryDy=0;" edge="1" parent="1cDxflDGtytfyRIqgx2e-66" source="1cDxflDGtytfyRIqgx2e-64" target="rjwv_-UmsnpMQfWyNfDe-17">
          <mxGeometry relative="1" as="geometry" />
        </mxCell>
        <mxCell id="1cDxflDGtytfyRIqgx2e-64" value="&lt;span style=&quot;font-size: 18px;&quot;&gt;TransDate&lt;/span&gt;" style="ellipse;whiteSpace=wrap;html=1;" vertex="1" parent="1cDxflDGtytfyRIqgx2e-66">
          <mxGeometry y="220" width="100" height="70" as="geometry" />
        </mxCell>
        <mxCell id="1cDxflDGtytfyRIqgx2e-86" value="" style="group" vertex="1" connectable="0" parent="1">
          <mxGeometry x="802.5" y="1250" width="667.5" height="330" as="geometry" />
        </mxCell>
        <mxCell id="1cDxflDGtytfyRIqgx2e-75" value="" style="group" vertex="1" connectable="0" parent="1cDxflDGtytfyRIqgx2e-86">
          <mxGeometry y="80" width="455" height="250" as="geometry" />
        </mxCell>
        <mxCell id="rjwv_-UmsnpMQfWyNfDe-18" value="&lt;font style=&quot;font-size: 24px;&quot;&gt;Leon&lt;/font&gt;" style="rounded=0;whiteSpace=wrap;html=1;" parent="1cDxflDGtytfyRIqgx2e-75" vertex="1">
          <mxGeometry x="165" width="120" height="60" as="geometry" />
        </mxCell>
        <mxCell id="1cDxflDGtytfyRIqgx2e-68" style="edgeStyle=orthogonalEdgeStyle;rounded=0;orthogonalLoop=1;jettySize=auto;html=1;entryX=0;entryY=0.25;entryDx=0;entryDy=0;" edge="1" parent="1cDxflDGtytfyRIqgx2e-75" source="1cDxflDGtytfyRIqgx2e-67" target="rjwv_-UmsnpMQfWyNfDe-18">
          <mxGeometry relative="1" as="geometry" />
        </mxCell>
        <mxCell id="1cDxflDGtytfyRIqgx2e-67" value="&lt;span style=&quot;font-size: 18px;&quot;&gt;&lt;u&gt;LeonID&lt;/u&gt;&lt;/span&gt;" style="ellipse;whiteSpace=wrap;html=1;" vertex="1" parent="1cDxflDGtytfyRIqgx2e-75">
          <mxGeometry y="90" width="100" height="70" as="geometry" />
        </mxCell>
        <mxCell id="1cDxflDGtytfyRIqgx2e-70" style="edgeStyle=orthogonalEdgeStyle;rounded=0;orthogonalLoop=1;jettySize=auto;html=1;entryX=0;entryY=0.5;entryDx=0;entryDy=0;" edge="1" parent="1cDxflDGtytfyRIqgx2e-75" source="1cDxflDGtytfyRIqgx2e-69" target="rjwv_-UmsnpMQfWyNfDe-18">
          <mxGeometry relative="1" as="geometry" />
        </mxCell>
        <mxCell id="1cDxflDGtytfyRIqgx2e-69" value="&lt;span style=&quot;font-size: 18px;&quot;&gt;LeonType&lt;/span&gt;" style="ellipse;whiteSpace=wrap;html=1;" vertex="1" parent="1cDxflDGtytfyRIqgx2e-75">
          <mxGeometry x="35" y="170" width="100" height="70" as="geometry" />
        </mxCell>
        <mxCell id="1cDxflDGtytfyRIqgx2e-72" style="edgeStyle=orthogonalEdgeStyle;rounded=0;orthogonalLoop=1;jettySize=auto;html=1;entryX=0.25;entryY=1;entryDx=0;entryDy=0;" edge="1" parent="1cDxflDGtytfyRIqgx2e-75" source="1cDxflDGtytfyRIqgx2e-71" target="rjwv_-UmsnpMQfWyNfDe-18">
          <mxGeometry relative="1" as="geometry">
            <Array as="points">
              <mxPoint x="195" y="140" />
              <mxPoint x="195" y="140" />
            </Array>
          </mxGeometry>
        </mxCell>
        <mxCell id="1cDxflDGtytfyRIqgx2e-71" value="&lt;span style=&quot;font-size: 18px;&quot;&gt;LeonAmount&lt;/span&gt;" style="ellipse;whiteSpace=wrap;html=1;" vertex="1" parent="1cDxflDGtytfyRIqgx2e-75">
          <mxGeometry x="170" y="170" width="115" height="70" as="geometry" />
        </mxCell>
        <mxCell id="1cDxflDGtytfyRIqgx2e-78" style="edgeStyle=orthogonalEdgeStyle;rounded=0;orthogonalLoop=1;jettySize=auto;html=1;entryX=0.75;entryY=1;entryDx=0;entryDy=0;" edge="1" parent="1cDxflDGtytfyRIqgx2e-75" source="1cDxflDGtytfyRIqgx2e-76" target="rjwv_-UmsnpMQfWyNfDe-18">
          <mxGeometry relative="1" as="geometry">
            <Array as="points">
              <mxPoint x="363" y="140" />
              <mxPoint x="255" y="140" />
            </Array>
          </mxGeometry>
        </mxCell>
        <mxCell id="1cDxflDGtytfyRIqgx2e-76" value="&lt;span style=&quot;font-size: 18px;&quot;&gt;LeonTerm&lt;/span&gt;" style="ellipse;whiteSpace=wrap;html=1;" vertex="1" parent="1cDxflDGtytfyRIqgx2e-75">
          <mxGeometry x="305" y="160" width="115" height="70" as="geometry" />
        </mxCell>
        <mxCell id="1cDxflDGtytfyRIqgx2e-73" value="&lt;font style=&quot;font-size: 18px;&quot;&gt;InterestRate&lt;/font&gt;" style="ellipse;whiteSpace=wrap;html=1;" vertex="1" parent="1cDxflDGtytfyRIqgx2e-86">
          <mxGeometry x="347.5" width="115" height="70" as="geometry" />
        </mxCell>
        <mxCell id="1cDxflDGtytfyRIqgx2e-74" style="edgeStyle=orthogonalEdgeStyle;rounded=0;orthogonalLoop=1;jettySize=auto;html=1;entryX=1;entryY=0.5;entryDx=0;entryDy=0;" edge="1" parent="1cDxflDGtytfyRIqgx2e-86" source="1cDxflDGtytfyRIqgx2e-73" target="rjwv_-UmsnpMQfWyNfDe-18">
          <mxGeometry relative="1" as="geometry" />
        </mxCell>
        <mxCell id="1cDxflDGtytfyRIqgx2e-79" value="" style="group" vertex="1" connectable="0" parent="1cDxflDGtytfyRIqgx2e-86">
          <mxGeometry x="457.5" y="50" width="210" height="180" as="geometry" />
        </mxCell>
        <mxCell id="1cDxflDGtytfyRIqgx2e-80" value="&lt;span style=&quot;font-size: 18px;&quot;&gt;Date&lt;/span&gt;" style="ellipse;whiteSpace=wrap;html=1;" vertex="1" parent="1cDxflDGtytfyRIqgx2e-79">
          <mxGeometry x="30" y="110" width="100" height="70" as="geometry" />
        </mxCell>
        <mxCell id="1cDxflDGtytfyRIqgx2e-81" style="edgeStyle=orthogonalEdgeStyle;rounded=0;orthogonalLoop=1;jettySize=auto;html=1;" edge="1" parent="1cDxflDGtytfyRIqgx2e-79" source="1cDxflDGtytfyRIqgx2e-82" target="1cDxflDGtytfyRIqgx2e-80">
          <mxGeometry relative="1" as="geometry" />
        </mxCell>
        <mxCell id="1cDxflDGtytfyRIqgx2e-82" value="&lt;span style=&quot;font-size: 18px;&quot;&gt;SDate&lt;/span&gt;" style="ellipse;whiteSpace=wrap;html=1;" vertex="1" parent="1cDxflDGtytfyRIqgx2e-79">
          <mxGeometry width="100" height="70" as="geometry" />
        </mxCell>
        <mxCell id="1cDxflDGtytfyRIqgx2e-83" style="edgeStyle=orthogonalEdgeStyle;rounded=0;orthogonalLoop=1;jettySize=auto;html=1;" edge="1" parent="1cDxflDGtytfyRIqgx2e-79" source="1cDxflDGtytfyRIqgx2e-84">
          <mxGeometry relative="1" as="geometry">
            <mxPoint x="80" y="110" as="targetPoint" />
            <Array as="points">
              <mxPoint x="170" y="100" />
              <mxPoint x="80" y="100" />
            </Array>
          </mxGeometry>
        </mxCell>
        <mxCell id="1cDxflDGtytfyRIqgx2e-84" value="&lt;span style=&quot;font-size: 18px;&quot;&gt;EDate&lt;/span&gt;" style="ellipse;whiteSpace=wrap;html=1;" vertex="1" parent="1cDxflDGtytfyRIqgx2e-79">
          <mxGeometry x="110" width="100" height="70" as="geometry" />
        </mxCell>
        <mxCell id="1cDxflDGtytfyRIqgx2e-85" style="edgeStyle=orthogonalEdgeStyle;rounded=0;orthogonalLoop=1;jettySize=auto;html=1;entryX=0.887;entryY=1.004;entryDx=0;entryDy=0;entryPerimeter=0;" edge="1" parent="1cDxflDGtytfyRIqgx2e-86" source="1cDxflDGtytfyRIqgx2e-80" target="rjwv_-UmsnpMQfWyNfDe-18">
          <mxGeometry relative="1" as="geometry" />
        </mxCell>
        <mxCell id="1cDxflDGtytfyRIqgx2e-122" value="" style="group" vertex="1" connectable="0" parent="1">
          <mxGeometry x="-170" y="-360" width="710" height="260" as="geometry" />
        </mxCell>
        <mxCell id="E4YLymmsPlQUMgWz-ke0-50" value="&lt;font style=&quot;font-size: 18px;&quot;&gt;&lt;u&gt;BankID&lt;/u&gt;&lt;/font&gt;" style="ellipse;whiteSpace=wrap;html=1;" parent="1cDxflDGtytfyRIqgx2e-122" vertex="1">
          <mxGeometry y="170" width="90" height="90" as="geometry" />
        </mxCell>
        <mxCell id="E4YLymmsPlQUMgWz-ke0-52" value="&lt;font style=&quot;font-size: 18px;&quot;&gt;BankName&lt;/font&gt;" style="ellipse;whiteSpace=wrap;html=1;" parent="1cDxflDGtytfyRIqgx2e-122" vertex="1">
          <mxGeometry x="90" y="100" width="110" height="77.5" as="geometry" />
        </mxCell>
        <mxCell id="E4YLymmsPlQUMgWz-ke0-57" value="" style="group" parent="1cDxflDGtytfyRIqgx2e-122" vertex="1" connectable="0">
          <mxGeometry x="240" y="20" width="184.25" height="100" as="geometry" />
        </mxCell>
        <mxCell id="E4YLymmsPlQUMgWz-ke0-56" value="" style="ellipse;whiteSpace=wrap;html=1;" parent="E4YLymmsPlQUMgWz-ke0-57" vertex="1">
          <mxGeometry width="184.25" height="100" as="geometry" />
        </mxCell>
        <mxCell id="E4YLymmsPlQUMgWz-ke0-54" value="&lt;font style=&quot;font-size: 18px;&quot;&gt;PhoneNumber&lt;/font&gt;" style="ellipse;whiteSpace=wrap;html=1;" parent="E4YLymmsPlQUMgWz-ke0-57" vertex="1">
          <mxGeometry x="15" y="10" width="150" height="80" as="geometry" />
        </mxCell>
        <mxCell id="1cDxflDGtytfyRIqgx2e-27" value="" style="group" vertex="1" connectable="0" parent="1cDxflDGtytfyRIqgx2e-122">
          <mxGeometry x="450" width="260" height="205" as="geometry" />
        </mxCell>
        <mxCell id="1cDxflDGtytfyRIqgx2e-21" value="&lt;font style=&quot;font-size: 18px;&quot;&gt;Email_Address&lt;/font&gt;" style="ellipse;whiteSpace=wrap;html=1;" vertex="1" parent="1cDxflDGtytfyRIqgx2e-27">
          <mxGeometry width="150" height="70" as="geometry" />
        </mxCell>
        <mxCell id="1cDxflDGtytfyRIqgx2e-23" value="" style="group" vertex="1" connectable="0" parent="1cDxflDGtytfyRIqgx2e-27">
          <mxGeometry y="120" width="120" height="85" as="geometry" />
        </mxCell>
        <mxCell id="1cDxflDGtytfyRIqgx2e-22" value="" style="ellipse;whiteSpace=wrap;html=1;" vertex="1" parent="1cDxflDGtytfyRIqgx2e-23">
          <mxGeometry width="120" height="85" as="geometry" />
        </mxCell>
        <mxCell id="E4YLymmsPlQUMgWz-ke0-58" value="&lt;font style=&quot;font-size: 18px;&quot;&gt;Email&lt;/font&gt;" style="ellipse;whiteSpace=wrap;html=1;" parent="1cDxflDGtytfyRIqgx2e-23" vertex="1">
          <mxGeometry x="10" y="7.5" width="100" height="70" as="geometry" />
        </mxCell>
        <mxCell id="1cDxflDGtytfyRIqgx2e-25" style="edgeStyle=orthogonalEdgeStyle;rounded=0;orthogonalLoop=1;jettySize=auto;html=1;entryX=0;entryY=0;entryDx=0;entryDy=0;" edge="1" parent="1cDxflDGtytfyRIqgx2e-27" source="1cDxflDGtytfyRIqgx2e-21" target="1cDxflDGtytfyRIqgx2e-22">
          <mxGeometry relative="1" as="geometry" />
        </mxCell>
        <mxCell id="1cDxflDGtytfyRIqgx2e-26" style="edgeStyle=orthogonalEdgeStyle;rounded=0;orthogonalLoop=1;jettySize=auto;html=1;entryX=1;entryY=0;entryDx=0;entryDy=0;" edge="1" parent="1cDxflDGtytfyRIqgx2e-27" source="1cDxflDGtytfyRIqgx2e-24" target="1cDxflDGtytfyRIqgx2e-22">
          <mxGeometry relative="1" as="geometry" />
        </mxCell>
        <mxCell id="1cDxflDGtytfyRIqgx2e-24" value="&lt;font style=&quot;font-size: 18px;&quot;&gt;EmailType&lt;/font&gt;" style="ellipse;whiteSpace=wrap;html=1;" vertex="1" parent="1cDxflDGtytfyRIqgx2e-27">
          <mxGeometry x="160" y="50" width="100" height="70" as="geometry" />
        </mxCell>
        <mxCell id="1cDxflDGtytfyRIqgx2e-126" value="" style="group" vertex="1" connectable="0" parent="1">
          <mxGeometry x="-70" y="270" width="820" height="590" as="geometry" />
        </mxCell>
        <mxCell id="E4YLymmsPlQUMgWz-ke0-14" value="&lt;span style=&quot;font-size: 18px;&quot;&gt;Manage&lt;/span&gt;" style="rhombus;whiteSpace=wrap;html=1;" parent="1cDxflDGtytfyRIqgx2e-126" vertex="1">
          <mxGeometry x="343" width="95" height="90" as="geometry" />
        </mxCell>
        <mxCell id="E4YLymmsPlQUMgWz-ke0-19" value="&lt;font style=&quot;font-size: 18px;&quot;&gt;1&lt;/font&gt;" style="text;html=1;strokeColor=none;fillColor=none;align=center;verticalAlign=middle;whiteSpace=wrap;rounded=0;" parent="1cDxflDGtytfyRIqgx2e-126" vertex="1">
          <mxGeometry x="405" width="60" height="30" as="geometry" />
        </mxCell>
        <mxCell id="1cDxflDGtytfyRIqgx2e-118" value="" style="group" vertex="1" connectable="0" parent="1cDxflDGtytfyRIqgx2e-126">
          <mxGeometry width="820" height="590" as="geometry" />
        </mxCell>
        <mxCell id="rjwv_-UmsnpMQfWyNfDe-14" value="&lt;font style=&quot;font-size: 24px;&quot;&gt;Employees&lt;/font&gt;" style="rounded=0;whiteSpace=wrap;html=1;" parent="1cDxflDGtytfyRIqgx2e-118" vertex="1">
          <mxGeometry x="315" y="180" width="140" height="60" as="geometry" />
        </mxCell>
        <mxCell id="E4YLymmsPlQUMgWz-ke0-3" style="edgeStyle=orthogonalEdgeStyle;rounded=0;orthogonalLoop=1;jettySize=auto;html=1;entryX=1;entryY=0.5;entryDx=0;entryDy=0;shape=link;" parent="1cDxflDGtytfyRIqgx2e-118" source="E4YLymmsPlQUMgWz-ke0-1" target="rjwv_-UmsnpMQfWyNfDe-14" edge="1">
          <mxGeometry relative="1" as="geometry" />
        </mxCell>
        <mxCell id="E4YLymmsPlQUMgWz-ke0-12" value="" style="group" parent="1cDxflDGtytfyRIqgx2e-118" vertex="1" connectable="0">
          <mxGeometry x="560" y="140" width="130" height="110" as="geometry" />
        </mxCell>
        <mxCell id="E4YLymmsPlQUMgWz-ke0-1" value="&lt;font style=&quot;font-size: 18px;&quot;&gt;Has&lt;/font&gt;" style="rhombus;whiteSpace=wrap;html=1;" parent="E4YLymmsPlQUMgWz-ke0-12" vertex="1">
          <mxGeometry x="50" y="30" width="80" height="80" as="geometry" />
        </mxCell>
        <mxCell id="E4YLymmsPlQUMgWz-ke0-5" value="&lt;font style=&quot;font-size: 18px;&quot;&gt;1&lt;/font&gt;" style="text;html=1;strokeColor=none;fillColor=none;align=center;verticalAlign=middle;whiteSpace=wrap;rounded=0;" parent="E4YLymmsPlQUMgWz-ke0-12" vertex="1">
          <mxGeometry x="40" width="60" height="30" as="geometry" />
        </mxCell>
        <mxCell id="E4YLymmsPlQUMgWz-ke0-6" value="&lt;font style=&quot;font-size: 18px;&quot;&gt;M&lt;/font&gt;" style="text;html=1;strokeColor=none;fillColor=none;align=center;verticalAlign=middle;whiteSpace=wrap;rounded=0;" parent="E4YLymmsPlQUMgWz-ke0-12" vertex="1">
          <mxGeometry y="40" width="60" height="30" as="geometry" />
        </mxCell>
        <mxCell id="E4YLymmsPlQUMgWz-ke0-18" value="&lt;font style=&quot;font-size: 18px;&quot;&gt;M&lt;/font&gt;" style="text;html=1;strokeColor=none;fillColor=none;align=center;verticalAlign=middle;whiteSpace=wrap;rounded=0;" parent="1cDxflDGtytfyRIqgx2e-118" vertex="1">
          <mxGeometry x="310" width="60" height="30" as="geometry" />
        </mxCell>
        <mxCell id="1cDxflDGtytfyRIqgx2e-88" style="edgeStyle=orthogonalEdgeStyle;rounded=0;orthogonalLoop=1;jettySize=auto;html=1;entryX=0;entryY=0.75;entryDx=0;entryDy=0;" edge="1" parent="1cDxflDGtytfyRIqgx2e-118" source="1cDxflDGtytfyRIqgx2e-87" target="rjwv_-UmsnpMQfWyNfDe-14">
          <mxGeometry relative="1" as="geometry">
            <mxPoint x="245" y="225" as="targetPoint" />
            <Array as="points">
              <mxPoint x="203" y="280" />
              <mxPoint x="203" y="270" />
              <mxPoint x="285" y="270" />
              <mxPoint x="285" y="225" />
            </Array>
          </mxGeometry>
        </mxCell>
        <mxCell id="1cDxflDGtytfyRIqgx2e-97" style="edgeStyle=orthogonalEdgeStyle;rounded=0;orthogonalLoop=1;jettySize=auto;html=1;entryX=0.25;entryY=1;entryDx=0;entryDy=0;" edge="1" parent="1cDxflDGtytfyRIqgx2e-118" source="1cDxflDGtytfyRIqgx2e-96" target="rjwv_-UmsnpMQfWyNfDe-14">
          <mxGeometry relative="1" as="geometry" />
        </mxCell>
        <mxCell id="1cDxflDGtytfyRIqgx2e-103" value="" style="group" vertex="1" connectable="0" parent="1cDxflDGtytfyRIqgx2e-118">
          <mxGeometry x="70" y="20" width="140" height="110" as="geometry" />
        </mxCell>
        <mxCell id="E4YLymmsPlQUMgWz-ke0-7" value="&lt;font style=&quot;font-size: 18px;&quot;&gt;Has&lt;/font&gt;" style="rhombus;whiteSpace=wrap;html=1;" parent="1cDxflDGtytfyRIqgx2e-103" vertex="1">
          <mxGeometry y="30" width="80" height="80" as="geometry" />
        </mxCell>
        <mxCell id="E4YLymmsPlQUMgWz-ke0-10" value="&lt;font style=&quot;font-size: 18px;&quot;&gt;M&lt;/font&gt;" style="text;html=1;strokeColor=none;fillColor=none;align=center;verticalAlign=middle;whiteSpace=wrap;rounded=0;" parent="1cDxflDGtytfyRIqgx2e-103" vertex="1">
          <mxGeometry x="80" y="40" width="60" height="30" as="geometry" />
        </mxCell>
        <mxCell id="E4YLymmsPlQUMgWz-ke0-11" value="&lt;font style=&quot;font-size: 18px;&quot;&gt;1&lt;/font&gt;" style="text;html=1;strokeColor=none;fillColor=none;align=center;verticalAlign=middle;whiteSpace=wrap;rounded=0;" parent="1cDxflDGtytfyRIqgx2e-103" vertex="1">
          <mxGeometry x="40" width="60" height="30" as="geometry" />
        </mxCell>
        <mxCell id="E4YLymmsPlQUMgWz-ke0-8" style="edgeStyle=orthogonalEdgeStyle;rounded=0;orthogonalLoop=1;jettySize=auto;html=1;entryX=1;entryY=0.5;entryDx=0;entryDy=0;shape=link;" parent="1cDxflDGtytfyRIqgx2e-118" source="rjwv_-UmsnpMQfWyNfDe-14" target="E4YLymmsPlQUMgWz-ke0-7" edge="1">
          <mxGeometry relative="1" as="geometry" />
        </mxCell>
        <mxCell id="1cDxflDGtytfyRIqgx2e-107" style="edgeStyle=orthogonalEdgeStyle;rounded=0;orthogonalLoop=1;jettySize=auto;html=1;entryX=0.357;entryY=1.037;entryDx=0;entryDy=0;entryPerimeter=0;" edge="1" parent="1cDxflDGtytfyRIqgx2e-118" source="1cDxflDGtytfyRIqgx2e-106" target="rjwv_-UmsnpMQfWyNfDe-14">
          <mxGeometry relative="1" as="geometry">
            <Array as="points">
              <mxPoint x="365" y="320" />
              <mxPoint x="365" y="320" />
            </Array>
          </mxGeometry>
        </mxCell>
        <mxCell id="1cDxflDGtytfyRIqgx2e-108" value="" style="group" vertex="1" connectable="0" parent="1cDxflDGtytfyRIqgx2e-118">
          <mxGeometry y="350" width="475" height="240" as="geometry" />
        </mxCell>
        <mxCell id="1cDxflDGtytfyRIqgx2e-102" value="" style="group" vertex="1" connectable="0" parent="1cDxflDGtytfyRIqgx2e-108">
          <mxGeometry x="100" y="50" width="375" height="190" as="geometry" />
        </mxCell>
        <mxCell id="1cDxflDGtytfyRIqgx2e-96" value="&lt;span style=&quot;font-size: 18px;&quot;&gt;Name&lt;/span&gt;" style="ellipse;whiteSpace=wrap;html=1;" vertex="1" parent="1cDxflDGtytfyRIqgx2e-102">
          <mxGeometry x="60" width="100" height="70" as="geometry" />
        </mxCell>
        <mxCell id="1cDxflDGtytfyRIqgx2e-100" style="edgeStyle=orthogonalEdgeStyle;rounded=0;orthogonalLoop=1;jettySize=auto;html=1;entryX=0.5;entryY=1;entryDx=0;entryDy=0;" edge="1" parent="1cDxflDGtytfyRIqgx2e-102" source="1cDxflDGtytfyRIqgx2e-98" target="1cDxflDGtytfyRIqgx2e-96">
          <mxGeometry relative="1" as="geometry" />
        </mxCell>
        <mxCell id="1cDxflDGtytfyRIqgx2e-98" value="&lt;span style=&quot;font-size: 18px;&quot;&gt;FName&lt;/span&gt;" style="ellipse;whiteSpace=wrap;html=1;" vertex="1" parent="1cDxflDGtytfyRIqgx2e-102">
          <mxGeometry y="120" width="100" height="70" as="geometry" />
        </mxCell>
        <mxCell id="1cDxflDGtytfyRIqgx2e-101" style="edgeStyle=orthogonalEdgeStyle;rounded=0;orthogonalLoop=1;jettySize=auto;html=1;entryX=0.5;entryY=1;entryDx=0;entryDy=0;" edge="1" parent="1cDxflDGtytfyRIqgx2e-102" source="1cDxflDGtytfyRIqgx2e-99" target="1cDxflDGtytfyRIqgx2e-96">
          <mxGeometry relative="1" as="geometry" />
        </mxCell>
        <mxCell id="1cDxflDGtytfyRIqgx2e-99" value="&lt;span style=&quot;font-size: 18px;&quot;&gt;LName&lt;/span&gt;" style="ellipse;whiteSpace=wrap;html=1;" vertex="1" parent="1cDxflDGtytfyRIqgx2e-102">
          <mxGeometry x="150" y="120" width="100" height="70" as="geometry" />
        </mxCell>
        <mxCell id="1cDxflDGtytfyRIqgx2e-104" value="" style="group" vertex="1" connectable="0" parent="1cDxflDGtytfyRIqgx2e-102">
          <mxGeometry x="235" y="50" width="140" height="80" as="geometry" />
        </mxCell>
        <mxCell id="1cDxflDGtytfyRIqgx2e-105" value="" style="ellipse;whiteSpace=wrap;html=1;" vertex="1" parent="1cDxflDGtytfyRIqgx2e-104">
          <mxGeometry width="140" height="80" as="geometry" />
        </mxCell>
        <mxCell id="1cDxflDGtytfyRIqgx2e-106" value="&lt;font style=&quot;font-size: 18px;&quot;&gt;PhoneNumber&lt;/font&gt;" style="ellipse;whiteSpace=wrap;html=1;" vertex="1" parent="1cDxflDGtytfyRIqgx2e-104">
          <mxGeometry x="13.007557666214382" y="8" width="113.97557666214384" height="64" as="geometry" />
        </mxCell>
        <mxCell id="1cDxflDGtytfyRIqgx2e-123" value="&lt;span style=&quot;font-size: 18px;&quot;&gt;HireDate&lt;/span&gt;" style="ellipse;whiteSpace=wrap;html=1;" vertex="1" parent="1cDxflDGtytfyRIqgx2e-108">
          <mxGeometry x="30" y="-20" width="100" height="70" as="geometry" />
        </mxCell>
        <mxCell id="1cDxflDGtytfyRIqgx2e-87" value="&lt;font style=&quot;font-size: 18px;&quot;&gt;&lt;u&gt;EmpID&lt;/u&gt;&lt;/font&gt;" style="ellipse;whiteSpace=wrap;html=1;" vertex="1" parent="1cDxflDGtytfyRIqgx2e-118">
          <mxGeometry x="-10" y="200" width="90" height="90" as="geometry" />
        </mxCell>
        <mxCell id="1cDxflDGtytfyRIqgx2e-125" style="edgeStyle=orthogonalEdgeStyle;rounded=0;orthogonalLoop=1;jettySize=auto;html=1;entryX=0;entryY=1;entryDx=0;entryDy=0;" edge="1" parent="1cDxflDGtytfyRIqgx2e-118" source="1cDxflDGtytfyRIqgx2e-123" target="rjwv_-UmsnpMQfWyNfDe-14">
          <mxGeometry relative="1" as="geometry">
            <Array as="points">
              <mxPoint x="315" y="340" />
            </Array>
          </mxGeometry>
        </mxCell>
        <mxCell id="1cDxflDGtytfyRIqgx2e-109" value="" style="group" vertex="1" connectable="0" parent="1cDxflDGtytfyRIqgx2e-118">
          <mxGeometry x="620" y="260" width="260" height="205" as="geometry" />
        </mxCell>
        <mxCell id="1cDxflDGtytfyRIqgx2e-110" value="&lt;font style=&quot;font-size: 18px;&quot;&gt;Email_Address&lt;/font&gt;" style="ellipse;whiteSpace=wrap;html=1;" vertex="1" parent="1cDxflDGtytfyRIqgx2e-109">
          <mxGeometry width="150" height="70" as="geometry" />
        </mxCell>
        <mxCell id="1cDxflDGtytfyRIqgx2e-111" value="" style="group" vertex="1" connectable="0" parent="1cDxflDGtytfyRIqgx2e-109">
          <mxGeometry y="120" width="120" height="85" as="geometry" />
        </mxCell>
        <mxCell id="1cDxflDGtytfyRIqgx2e-112" value="" style="ellipse;whiteSpace=wrap;html=1;" vertex="1" parent="1cDxflDGtytfyRIqgx2e-111">
          <mxGeometry width="120" height="85" as="geometry" />
        </mxCell>
        <mxCell id="1cDxflDGtytfyRIqgx2e-113" value="&lt;font style=&quot;font-size: 18px;&quot;&gt;Email&lt;/font&gt;" style="ellipse;whiteSpace=wrap;html=1;" vertex="1" parent="1cDxflDGtytfyRIqgx2e-111">
          <mxGeometry x="10" y="7.5" width="100" height="70" as="geometry" />
        </mxCell>
        <mxCell id="1cDxflDGtytfyRIqgx2e-114" style="edgeStyle=orthogonalEdgeStyle;rounded=0;orthogonalLoop=1;jettySize=auto;html=1;entryX=0;entryY=0;entryDx=0;entryDy=0;" edge="1" parent="1cDxflDGtytfyRIqgx2e-109" source="1cDxflDGtytfyRIqgx2e-110" target="1cDxflDGtytfyRIqgx2e-112">
          <mxGeometry relative="1" as="geometry" />
        </mxCell>
        <mxCell id="1cDxflDGtytfyRIqgx2e-115" style="edgeStyle=orthogonalEdgeStyle;rounded=0;orthogonalLoop=1;jettySize=auto;html=1;entryX=1;entryY=0;entryDx=0;entryDy=0;" edge="1" parent="1cDxflDGtytfyRIqgx2e-109" source="1cDxflDGtytfyRIqgx2e-116" target="1cDxflDGtytfyRIqgx2e-112">
          <mxGeometry relative="1" as="geometry" />
        </mxCell>
        <mxCell id="1cDxflDGtytfyRIqgx2e-116" value="&lt;font style=&quot;font-size: 18px;&quot;&gt;EmailType&lt;/font&gt;" style="ellipse;whiteSpace=wrap;html=1;" vertex="1" parent="1cDxflDGtytfyRIqgx2e-109">
          <mxGeometry x="160" y="50" width="100" height="70" as="geometry" />
        </mxCell>
        <mxCell id="1cDxflDGtytfyRIqgx2e-117" style="edgeStyle=orthogonalEdgeStyle;rounded=0;orthogonalLoop=1;jettySize=auto;html=1;entryX=0.75;entryY=1;entryDx=0;entryDy=0;" edge="1" parent="1cDxflDGtytfyRIqgx2e-118" source="1cDxflDGtytfyRIqgx2e-113" target="rjwv_-UmsnpMQfWyNfDe-14">
          <mxGeometry relative="1" as="geometry">
            <Array as="points">
              <mxPoint x="520" y="420" />
              <mxPoint x="520" y="300" />
              <mxPoint x="420" y="300" />
            </Array>
          </mxGeometry>
        </mxCell>
        <mxCell id="1cDxflDGtytfyRIqgx2e-131" style="edgeStyle=orthogonalEdgeStyle;rounded=0;orthogonalLoop=1;jettySize=auto;html=1;entryX=1;entryY=1;entryDx=0;entryDy=0;" edge="1" parent="1cDxflDGtytfyRIqgx2e-118" source="1cDxflDGtytfyRIqgx2e-130" target="rjwv_-UmsnpMQfWyNfDe-14">
          <mxGeometry relative="1" as="geometry" />
        </mxCell>
        <mxCell id="1cDxflDGtytfyRIqgx2e-130" value="&lt;span style=&quot;font-size: 18px;&quot;&gt;Salary&lt;/span&gt;" style="ellipse;whiteSpace=wrap;html=1;" vertex="1" parent="1cDxflDGtytfyRIqgx2e-118">
          <mxGeometry x="510" y="230" width="100" height="70" as="geometry" />
        </mxCell>
        <mxCell id="E4YLymmsPlQUMgWz-ke0-17" style="edgeStyle=orthogonalEdgeStyle;rounded=0;orthogonalLoop=1;jettySize=auto;html=1;exitX=1;exitY=0.5;exitDx=0;exitDy=0;entryX=0.856;entryY=0.033;entryDx=0;entryDy=0;entryPerimeter=0;" parent="1cDxflDGtytfyRIqgx2e-126" source="E4YLymmsPlQUMgWz-ke0-14" target="rjwv_-UmsnpMQfWyNfDe-14" edge="1">
          <mxGeometry relative="1" as="geometry" />
        </mxCell>
        <mxCell id="E4YLymmsPlQUMgWz-ke0-16" style="edgeStyle=orthogonalEdgeStyle;rounded=0;orthogonalLoop=1;jettySize=auto;html=1;entryX=0;entryY=0;entryDx=0;entryDy=0;shape=link;" parent="1cDxflDGtytfyRIqgx2e-126" source="E4YLymmsPlQUMgWz-ke0-14" target="rjwv_-UmsnpMQfWyNfDe-14" edge="1">
          <mxGeometry relative="1" as="geometry">
            <Array as="points">
              <mxPoint x="325" y="45" />
              <mxPoint x="325" y="100" />
              <mxPoint x="315" y="100" />
            </Array>
          </mxGeometry>
        </mxCell>
        <mxCell id="1cDxflDGtytfyRIqgx2e-129" style="edgeStyle=orthogonalEdgeStyle;rounded=0;orthogonalLoop=1;jettySize=auto;html=1;entryX=0.5;entryY=1;entryDx=0;entryDy=0;exitX=0.5;exitY=0;exitDx=0;exitDy=0;" edge="1" parent="1" source="1cDxflDGtytfyRIqgx2e-127" target="rjwv_-UmsnpMQfWyNfDe-14">
          <mxGeometry relative="1" as="geometry">
            <mxPoint x="410" y="830" as="sourcePoint" />
            <Array as="points">
              <mxPoint x="420" y="890" />
              <mxPoint x="420" y="650" />
              <mxPoint x="315" y="650" />
            </Array>
          </mxGeometry>
        </mxCell>
        <mxCell id="1cDxflDGtytfyRIqgx2e-127" value="&lt;font style=&quot;font-size: 18px;&quot;&gt;JobTitle&lt;/font&gt;" style="ellipse;whiteSpace=wrap;html=1;" vertex="1" parent="1">
          <mxGeometry x="245" y="910" width="150" height="70" as="geometry" />
        </mxCell>
        <mxCell id="1cDxflDGtytfyRIqgx2e-133" style="edgeStyle=orthogonalEdgeStyle;rounded=0;orthogonalLoop=1;jettySize=auto;html=1;entryX=0;entryY=0;entryDx=0;entryDy=0;" edge="1" parent="1" source="1cDxflDGtytfyRIqgx2e-132" target="rjwv_-UmsnpMQfWyNfDe-12">
          <mxGeometry relative="1" as="geometry">
            <mxPoint x="630" y="100" as="targetPoint" />
            <Array as="points">
              <mxPoint x="620" y="-55" />
              <mxPoint x="620" y="80" />
              <mxPoint x="630" y="80" />
            </Array>
          </mxGeometry>
        </mxCell>
        <mxCell id="1cDxflDGtytfyRIqgx2e-132" value="&lt;span style=&quot;font-size: 18px;&quot;&gt;&lt;u&gt;BranchID&lt;/u&gt;&lt;/span&gt;" style="ellipse;whiteSpace=wrap;html=1;" vertex="1" parent="1">
          <mxGeometry x="440" y="-90" width="100" height="70" as="geometry" />
        </mxCell>
        <mxCell id="1cDxflDGtytfyRIqgx2e-135" style="edgeStyle=orthogonalEdgeStyle;rounded=0;orthogonalLoop=1;jettySize=auto;html=1;entryX=0.142;entryY=0.029;entryDx=0;entryDy=0;entryPerimeter=0;" edge="1" parent="1" source="1cDxflDGtytfyRIqgx2e-134" target="rjwv_-UmsnpMQfWyNfDe-12">
          <mxGeometry relative="1" as="geometry">
            <Array as="points">
              <mxPoint x="575" y="-80" />
              <mxPoint x="647" y="-80" />
            </Array>
          </mxGeometry>
        </mxCell>
        <mxCell id="1cDxflDGtytfyRIqgx2e-134" value="&lt;span style=&quot;font-size: 18px;&quot;&gt;BrachName&lt;/span&gt;" style="ellipse;whiteSpace=wrap;html=1;" vertex="1" parent="1">
          <mxGeometry x="520" y="-170" width="110" height="70" as="geometry" />
        </mxCell>
        <mxCell id="1cDxflDGtytfyRIqgx2e-136" value="" style="group" vertex="1" connectable="0" parent="1">
          <mxGeometry x="800" y="-110" width="184.25" height="100" as="geometry" />
        </mxCell>
        <mxCell id="1cDxflDGtytfyRIqgx2e-137" value="" style="ellipse;whiteSpace=wrap;html=1;" vertex="1" parent="1cDxflDGtytfyRIqgx2e-136">
          <mxGeometry width="184.25" height="100" as="geometry" />
        </mxCell>
        <mxCell id="1cDxflDGtytfyRIqgx2e-138" value="&lt;font style=&quot;font-size: 18px;&quot;&gt;PhoneNumber&lt;/font&gt;" style="ellipse;whiteSpace=wrap;html=1;" vertex="1" parent="1cDxflDGtytfyRIqgx2e-136">
          <mxGeometry x="15" y="10" width="150" height="80" as="geometry" />
        </mxCell>
        <mxCell id="1cDxflDGtytfyRIqgx2e-139" style="edgeStyle=orthogonalEdgeStyle;rounded=0;orthogonalLoop=1;jettySize=auto;html=1;entryX=0.75;entryY=0;entryDx=0;entryDy=0;" edge="1" parent="1" source="1cDxflDGtytfyRIqgx2e-138" target="rjwv_-UmsnpMQfWyNfDe-12">
          <mxGeometry relative="1" as="geometry">
            <Array as="points">
              <mxPoint x="780" y="40" />
              <mxPoint x="720" y="40" />
            </Array>
          </mxGeometry>
        </mxCell>
        <mxCell id="1cDxflDGtytfyRIqgx2e-140" value="" style="group" vertex="1" connectable="0" parent="1">
          <mxGeometry x="630" y="-340" width="260" height="205" as="geometry" />
        </mxCell>
        <mxCell id="1cDxflDGtytfyRIqgx2e-141" value="&lt;font style=&quot;font-size: 18px;&quot;&gt;Email_Address&lt;/font&gt;" style="ellipse;whiteSpace=wrap;html=1;" vertex="1" parent="1cDxflDGtytfyRIqgx2e-140">
          <mxGeometry width="150" height="70" as="geometry" />
        </mxCell>
        <mxCell id="1cDxflDGtytfyRIqgx2e-142" value="" style="group" vertex="1" connectable="0" parent="1cDxflDGtytfyRIqgx2e-140">
          <mxGeometry y="120" width="120" height="85" as="geometry" />
        </mxCell>
        <mxCell id="1cDxflDGtytfyRIqgx2e-143" value="" style="ellipse;whiteSpace=wrap;html=1;" vertex="1" parent="1cDxflDGtytfyRIqgx2e-142">
          <mxGeometry width="120" height="85" as="geometry" />
        </mxCell>
        <mxCell id="1cDxflDGtytfyRIqgx2e-144" value="&lt;font style=&quot;font-size: 18px;&quot;&gt;Email&lt;/font&gt;" style="ellipse;whiteSpace=wrap;html=1;" vertex="1" parent="1cDxflDGtytfyRIqgx2e-142">
          <mxGeometry x="10" y="7.5" width="100" height="70" as="geometry" />
        </mxCell>
        <mxCell id="1cDxflDGtytfyRIqgx2e-145" style="edgeStyle=orthogonalEdgeStyle;rounded=0;orthogonalLoop=1;jettySize=auto;html=1;entryX=0;entryY=0;entryDx=0;entryDy=0;" edge="1" parent="1cDxflDGtytfyRIqgx2e-140" source="1cDxflDGtytfyRIqgx2e-141" target="1cDxflDGtytfyRIqgx2e-143">
          <mxGeometry relative="1" as="geometry" />
        </mxCell>
        <mxCell id="1cDxflDGtytfyRIqgx2e-146" style="edgeStyle=orthogonalEdgeStyle;rounded=0;orthogonalLoop=1;jettySize=auto;html=1;entryX=1;entryY=0;entryDx=0;entryDy=0;" edge="1" parent="1cDxflDGtytfyRIqgx2e-140" source="1cDxflDGtytfyRIqgx2e-147" target="1cDxflDGtytfyRIqgx2e-143">
          <mxGeometry relative="1" as="geometry" />
        </mxCell>
        <mxCell id="1cDxflDGtytfyRIqgx2e-147" value="&lt;font style=&quot;font-size: 18px;&quot;&gt;EmailType&lt;/font&gt;" style="ellipse;whiteSpace=wrap;html=1;" vertex="1" parent="1cDxflDGtytfyRIqgx2e-140">
          <mxGeometry x="160" y="50" width="100" height="70" as="geometry" />
        </mxCell>
        <mxCell id="1cDxflDGtytfyRIqgx2e-148" style="edgeStyle=orthogonalEdgeStyle;rounded=0;orthogonalLoop=1;jettySize=auto;html=1;entryX=0.5;entryY=0;entryDx=0;entryDy=0;" edge="1" parent="1" source="1cDxflDGtytfyRIqgx2e-144" target="rjwv_-UmsnpMQfWyNfDe-12">
          <mxGeometry relative="1" as="geometry" />
        </mxCell>
      </root>
    </mxGraphModel>
  </diagram>
</mxfile>
